<svg width="18" height="18" viewBox="0 0 18 18" fill="none" xmlns="http://www.w3.org/2000/svg">
<path fill-rule="evenodd" clip-rule="evenodd" d="M3.18705 4.02196L3.03504 2.77473C2.98029 2.246 2.52954 1.84392 1.99162 1.84392H1.42961C1.08187 1.84392 0.799988 1.56544 0.799988 1.22195C0.799988 0.878457 1.08187 0.599976 1.42961 0.599976H1.99162C3.17541 0.599976 4.16727 1.48474 4.28775 2.64814L4.40247 3.75584H17.1802C17.4444 3.75584 17.6428 3.99408 17.592 4.25018L16.4757 9.87422C16.2055 11.2357 14.9976 12.2178 13.5932 12.2178H6.90279C7.09575 13.0589 7.85663 13.6686 8.74417 13.6686H14.0138C14.0448 13.6686 14.0756 13.6709 14.0602 13.6736C14.1063 13.6703 14.1527 13.6686 14.1993 13.6686C15.2423 13.6686 16.0878 14.5039 16.0878 15.5343C16.0878 16.5647 15.2423 17.4 14.1993 17.4C13.1563 17.4 12.3108 16.5647 12.3108 15.5343C12.3108 15.3196 12.3476 15.11 12.4182 14.9126H10.1056C10.1762 15.11 10.213 15.3196 10.213 15.5343C10.213 16.5647 9.36755 17.4 8.32455 17.4C7.28155 17.4 6.43605 16.5647 6.43605 15.5343C6.43605 15.0799 6.60161 14.6517 6.89255 14.3179C6.17685 13.803 5.70473 13.0087 5.61319 12.1223L5.60352 12.0287C4.57883 11.6433 3.82258 10.7065 3.72184 9.56866L3.46809 6.70249C3.46381 6.68476 3.46066 6.66655 3.45873 6.64792L3.18705 4.02196ZM8.32455 16.3634C8.78805 16.3634 9.1638 15.9922 9.1638 15.5343C9.1638 15.0764 8.78805 14.7052 8.32455 14.7052C7.86104 14.7052 7.4853 15.0764 7.4853 15.5343C7.4853 15.9922 7.86104 16.3634 8.32455 16.3634ZM14.1993 16.3634C14.6628 16.3634 15.0385 15.9922 15.0385 15.5343C15.0385 15.0764 14.6628 14.7052 14.1993 14.7052C13.7358 14.7052 13.36 15.0764 13.36 15.5343C13.36 15.9922 13.7358 16.3634 14.1993 16.3634Z" fill="white"/>
</svg>
