<svg width="19" height="18" viewBox="0 0 19 18" fill="none" xmlns="http://www.w3.org/2000/svg">
<path fill-rule="evenodd" clip-rule="evenodd" d="M8.75 1.5C8.75 1.08579 9.08579 0.75 9.5 0.75C9.91421 0.75 10.25 1.08579 10.25 1.5V3.5C10.25 3.91421 9.91421 4.25 9.5 4.25C9.08579 4.25 8.75 3.91421 8.75 3.5V1.5ZM9.5 13C10.3284 13 11 12.3284 11 11.5C11 10.6716 10.3284 10 9.5 10C8.67157 10 8 10.6716 8 11.5C8 12.3284 8.67157 13 9.5 13ZM18.0303 1.96967C17.7374 1.67678 17.2626 1.67678 16.9697 1.96967L14.9697 3.96967C14.6768 4.26256 14.6768 4.73744 14.9697 5.03033C15.2626 5.32322 15.7374 5.32322 16.0303 5.03033L18.0303 3.03033C18.3232 2.73744 18.3232 2.26256 18.0303 1.96967ZM2.03033 1.96967L4.03033 3.96967C4.32322 4.26256 4.32322 4.73744 4.03033 5.03033C3.73744 5.32322 3.26256 5.32322 2.96967 5.03033L0.96967 3.03033C0.676777 2.73744 0.676777 2.26256 0.96967 1.96967C1.26256 1.67678 1.73744 1.67678 2.03033 1.96967ZM1.03809 11.3086C2.62331 7.48308 5.86765 5 9.5 5C13.1324 5 16.3767 7.48308 17.9619 11.3086C18.0127 11.4311 18.0127 11.5689 17.9619 11.6914C16.3767 15.5169 13.1324 18 9.5 18C5.86765 18 2.62331 15.5169 1.03809 11.6914C0.987304 11.5689 0.987304 11.4311 1.03809 11.3086ZM9.5 14C8.11929 14 7 12.8807 7 11.5C7 10.1193 8.11929 9 9.5 9C10.8807 9 12 10.1193 12 11.5C12 12.8807 10.8807 14 9.5 14Z" fill="url(#paint0_linear_177_82)"/>
<defs>
<linearGradient id="paint0_linear_177_82" x1="18.3232" y1="-0.258168" x2="-2.51511" y2="3.6624" gradientUnits="userSpaceOnUse">
<stop stop-color="#00AEEF"/>
<stop offset="1" stop-color="#0BE2E2"/>
</linearGradient>
</defs>
</svg>
