<svg width="240" height="276" viewBox="0 0 240 276" fill="none" xmlns="http://www.w3.org/2000/svg">
<g opacity="0.1">
<path d="M111.876 207.845C111.876 252.914 148.461 289.499 193.53 289.499C238.599 289.499 275.184 252.914 275.184 207.845C275.184 162.776 238.599 126.191 193.53 126.191C147.931 126.191 111.876 162.776 111.876 207.845ZM193 146.87C226.934 146.87 253.975 174.441 253.975 207.845H229.055C229.055 187.697 212.618 171.26 192.47 171.26V146.87H193Z" fill="#00AEEF"/>
<path d="M386 195.651V175.503L371.154 164.368L361.61 176.563C360.019 118.769 328.736 68.3984 283.137 39.2363L274.124 75.2912C272.533 74.2308 270.412 73.1703 268.291 72.1099L270.942 32.3434L253.445 10.0742C234.357 3.18133 214.209 0 193 0C171.791 0 151.643 3.71155 132.555 10.0742L115.058 32.3434L117.709 72.1099C115.588 73.1703 113.997 74.2308 111.876 75.2912L102.863 39.2363C57.2637 68.3984 25.9808 118.769 24.3901 176.563L14.8461 164.368L0 175.503V195.651H37.6456C37.1154 199.363 37.1154 203.604 37.1154 207.846C37.1154 293.742 106.574 363.201 192.47 363.201C229.055 363.201 262.459 350.475 288.97 329.266L261.929 302.225C242.31 316.541 218.451 325.025 192.47 325.025C127.783 325.025 75.2912 272.533 75.2912 207.846C75.2912 143.159 127.783 90.6676 192.47 90.6676C257.157 90.6676 309.648 143.159 309.648 207.846C309.648 233.297 301.165 257.157 287.379 276.245L314.42 303.286C335.099 276.775 347.824 243.371 347.824 207.316C347.824 203.074 347.824 199.363 347.294 195.121L386 195.651Z" fill="black"/>
</g>
</svg>
