<svg width="24" height="24" viewBox="0 0 24 24" fill="none" xmlns="http://www.w3.org/2000/svg">
<g id="Icon  2">
<path id="Oval" opacity="0.15" fill-rule="evenodd" clip-rule="evenodd" d="M12 24C18.6274 24 24 18.6274 24 12C24 5.37258 18.6274 0 12 0C5.37258 0 0 5.37258 0 12C0 18.6274 5.37258 24 12 24Z" fill="#36B37E"/>
<path id="Icon" d="M10.3982 15.8242L7.13647 12.582C7.04533 12.4909 6.99976 12.3737 6.99976 12.2305C6.99976 12.0872 7.04533 11.97 7.13647 11.8789L7.85913 11.1758C7.95027 11.0716 8.06421 11.0195 8.20092 11.0195C8.33764 11.0195 8.45809 11.0716 8.56225 11.1758L10.7497 13.3633L15.4372 8.67578C15.5414 8.57161 15.6618 8.51953 15.7986 8.51953C15.9353 8.51953 16.0492 8.57161 16.1404 8.67578L16.863 9.3789C16.9542 9.47005 16.9997 9.58724 16.9997 9.73047C16.9997 9.87369 16.9542 9.99088 16.863 10.082L11.1013 15.8242C11.0102 15.9284 10.893 15.9805 10.7497 15.9805C10.6065 15.9805 10.4893 15.9284 10.3982 15.8242Z" fill="#36B37E"/>
</g>
</svg>
